<svg width="1728" height="1505" viewBox="0 0 1728 1505" fill="none" xmlns="http://www.w3.org/2000/svg">
<path fill-rule="evenodd" clip-rule="evenodd" d="M0.00390625 971.995V741.745C24.0146 725.111 42.9564 686.046 32.057 642.422C25.4586 616.013 13.6992 593.628 7.67866 566.575C0.156007 532.774 17.9036 503.331 53.7267 509.69C97.4586 517.454 126.607 542.887 144.017 576.959C149.878 588.43 158.503 606.576 153.948 624.815C149.122 644.142 136.154 656.018 126.862 670.865C121.062 680.131 116.819 691.714 113.318 702.919C98.0846 751.678 101.487 821.025 146.725 834.748C174.621 843.211 201.044 814.796 212.186 800.888C238.165 768.457 271.531 726.348 311.956 709.24C374.373 682.824 448.825 720.736 466.352 765.221C476.407 790.744 463.386 816.247 451.905 831.136C422.33 869.489 372.039 890.621 314.213 900.663C287.851 905.24 261.566 893.63 235.661 899.759C212.925 905.14 183.467 928.169 212.186 949.421C247.222 975.349 317.503 953.268 351.683 940.843C398.988 923.647 444.241 906.189 484.41 882.152C537.536 850.362 585.858 813.038 650.543 792.762C732.201 767.165 842.085 811.106 853.696 879.443C856.749 897.41 846.12 909.896 839.249 918.721C821.744 941.207 784.691 948.14 755.279 958.451C741.437 962.965 727.589 967.48 713.746 971.995H0.00390625Z" fill="url(#paint0_linear_2429_2420)"/>
<path fill-rule="evenodd" clip-rule="evenodd" d="M1727.95 0.0478516V858.443C1703.77 842.825 1676.18 854.112 1656.81 866.549C1609.08 897.187 1564.4 939.265 1506.86 958.874C1468.58 971.918 1411.51 963.812 1393.84 937.257C1374.88 908.759 1408.98 875.227 1424.01 863.397C1467.96 828.787 1521.38 803.937 1552.34 756.21C1566.84 733.864 1574.8 702.128 1556.84 676.946C1536.86 648.937 1508.76 665.645 1491.55 683.251C1483.6 693.008 1475.64 702.768 1467.69 712.525C1446.95 738.36 1405.93 758.949 1363.22 740.898C1351.45 735.923 1340.68 728.993 1331.25 721.532C1301.92 698.324 1288.84 653.602 1300.18 602.185C1312.52 546.18 1330.58 499.429 1342.05 442.756C1352.49 391.204 1342.14 334.356 1312.34 310.799C1307.23 307.497 1302.13 304.194 1297.03 300.891C1261.22 285.272 1251.41 318.784 1242.99 343.676C1227.3 390.053 1217.05 438.387 1171.4 454.466C1163.43 457.271 1150.27 459.83 1138.97 457.618C1069.41 444.005 1019.61 347.078 993.531 286.48C980.293 255.72 972.516 220.711 948.052 201.361C932.095 188.74 904.734 175.302 874.205 181.095C848.603 185.952 828.516 195.401 805.31 202.262C796.156 203.762 786.998 205.264 777.843 206.765C760.864 209.603 743.385 204.153 731.463 200.46C687.908 186.968 634.264 137.52 654.014 73.0068C657.598 61.2965 664.204 48.6875 672.926 41.9316C706.306 16.076 759.856 46.1477 806.661 38.3289C832.704 33.9783 852.392 28.739 869.251 15.8105C874.354 10.5567 879.459 5.3016 884.561 0.0478516H1727.95Z" fill="url(#paint1_linear_2429_2420)"/>
<path fill-rule="evenodd" clip-rule="evenodd" d="M0 971V1201.25C24.0107 1217.88 42.9525 1256.95 32.0531 1300.57C25.4547 1326.98 13.6953 1349.37 7.67475 1376.42C0.152101 1410.22 17.8997 1439.66 53.7228 1433.3C97.4547 1425.54 126.603 1400.11 144.013 1366.04C149.874 1354.57 158.499 1336.42 153.945 1318.18C149.118 1298.85 136.15 1286.98 126.858 1272.13C121.058 1262.86 116.815 1251.28 113.314 1240.08C98.0807 1191.32 101.483 1121.97 146.721 1108.25C174.618 1099.78 201.04 1128.2 212.182 1142.11C238.161 1174.54 271.527 1216.65 311.952 1233.75C374.369 1260.17 448.821 1222.26 466.348 1177.77C476.403 1152.25 463.383 1126.75 451.901 1111.86C422.326 1073.51 372.035 1052.37 314.209 1042.33C287.847 1037.75 261.562 1049.36 235.657 1043.24C212.921 1037.86 183.463 1014.83 212.182 993.573C247.218 967.646 317.499 989.726 351.68 1002.15C398.984 1019.35 444.237 1036.81 484.406 1060.84C537.532 1092.63 585.854 1129.96 650.539 1150.23C732.197 1175.83 842.081 1131.89 853.692 1063.55C856.745 1045.58 846.116 1033.1 839.246 1024.27C821.741 1001.79 784.687 994.855 755.276 984.544C741.433 980.03 727.585 975.514 713.742 971H0Z" fill="url(#paint2_linear_2429_2420)"/>
<defs>
<linearGradient id="paint0_linear_2429_2420" x1="-0.00148044" y1="972" x2="206.549" y2="606.15" gradientUnits="userSpaceOnUse">
<stop stop-color="#0623FF"/>
<stop offset="1" stop-color="#00DDFF"/>
</linearGradient>
<linearGradient id="paint1_linear_2429_2420" x1="1118.25" y1="603.45" x2="1727.95" y2="0.0478368" gradientUnits="userSpaceOnUse">
<stop stop-color="#FF00FA"/>
<stop offset="1" stop-color="#7300FF"/>
</linearGradient>
<linearGradient id="paint2_linear_2429_2420" x1="-0.00538669" y1="970.994" x2="206.545" y2="1336.84" gradientUnits="userSpaceOnUse">
<stop stop-color="#0623FF"/>
<stop offset="1" stop-color="#00DDFF"/>
</linearGradient>
</defs>
</svg>
